<mxfile host="app.diagrams.net" modified="2021-11-17T05:56:23.375Z" agent="5.0 (Windows NT 10.0; Win64; x64) AppleWebKit/537.36 (KHTML, like Gecko) Chrome/95.0.4638.69 Safari/537.36" etag="TG3FBBjnbSZ_1Zwgqhi0" version="15.7.4" type="github" pages="2">
  <diagram id="7AULFHyz5qsApN5HjDMf" name="Website">
    <mxGraphModel dx="2595" dy="1463" grid="1" gridSize="10" guides="1" tooltips="1" connect="1" arrows="1" fold="1" page="1" pageScale="1" pageWidth="1169" pageHeight="827" math="0" shadow="0">
      <root>
        <mxCell id="0" />
        <mxCell id="1" parent="0" />
        <mxCell id="ZnOyd_s6FaFxM5RJmOr9-26" style="edgeStyle=orthogonalEdgeStyle;orthogonalLoop=1;jettySize=auto;html=1;exitX=0;exitY=0.5;exitDx=0;exitDy=0;entryX=0;entryY=0.5;entryDx=0;entryDy=0;fontSize=18;" parent="1" source="ZnOyd_s6FaFxM5RJmOr9-1" target="ZnOyd_s6FaFxM5RJmOr9-11" edge="1">
          <mxGeometry relative="1" as="geometry" />
        </mxCell>
        <mxCell id="ZnOyd_s6FaFxM5RJmOr9-27" style="edgeStyle=orthogonalEdgeStyle;orthogonalLoop=1;jettySize=auto;html=1;exitX=0;exitY=0.5;exitDx=0;exitDy=0;entryX=0;entryY=0.5;entryDx=0;entryDy=0;fontSize=18;" parent="1" source="ZnOyd_s6FaFxM5RJmOr9-1" target="ZnOyd_s6FaFxM5RJmOr9-12" edge="1">
          <mxGeometry relative="1" as="geometry" />
        </mxCell>
        <mxCell id="ZnOyd_s6FaFxM5RJmOr9-28" style="edgeStyle=orthogonalEdgeStyle;orthogonalLoop=1;jettySize=auto;html=1;exitX=0;exitY=0.5;exitDx=0;exitDy=0;entryX=0;entryY=0.5;entryDx=0;entryDy=0;fontSize=18;" parent="1" source="ZnOyd_s6FaFxM5RJmOr9-1" target="ZnOyd_s6FaFxM5RJmOr9-13" edge="1">
          <mxGeometry relative="1" as="geometry" />
        </mxCell>
        <mxCell id="ZnOyd_s6FaFxM5RJmOr9-1" value="&lt;font style=&quot;font-size: 18px&quot;&gt;Kebaktian&lt;/font&gt;" style="whiteSpace=wrap;html=1;rounded=0;fillColor=#FFC107;" parent="1" vertex="1">
          <mxGeometry x="140" y="160" width="120" height="40" as="geometry" />
        </mxCell>
        <mxCell id="ZnOyd_s6FaFxM5RJmOr9-2" value="&lt;font style=&quot;font-size: 18px&quot;&gt;Renungan&lt;/font&gt;" style="whiteSpace=wrap;html=1;rounded=0;fillColor=#FFC107;" parent="1" vertex="1">
          <mxGeometry x="410" y="160" width="120" height="40" as="geometry" />
        </mxCell>
        <mxCell id="ZnOyd_s6FaFxM5RJmOr9-29" style="edgeStyle=orthogonalEdgeStyle;orthogonalLoop=1;jettySize=auto;html=1;exitX=0;exitY=0.5;exitDx=0;exitDy=0;entryX=0;entryY=0.5;entryDx=0;entryDy=0;fontSize=18;" parent="1" source="ZnOyd_s6FaFxM5RJmOr9-3" target="ZnOyd_s6FaFxM5RJmOr9-17" edge="1">
          <mxGeometry relative="1" as="geometry" />
        </mxCell>
        <mxCell id="ZnOyd_s6FaFxM5RJmOr9-30" style="edgeStyle=orthogonalEdgeStyle;orthogonalLoop=1;jettySize=auto;html=1;exitX=0;exitY=0.5;exitDx=0;exitDy=0;entryX=0;entryY=0.5;entryDx=0;entryDy=0;fontSize=18;" parent="1" source="ZnOyd_s6FaFxM5RJmOr9-3" target="ZnOyd_s6FaFxM5RJmOr9-18" edge="1">
          <mxGeometry relative="1" as="geometry" />
        </mxCell>
        <mxCell id="ZnOyd_s6FaFxM5RJmOr9-3" value="&lt;font style=&quot;font-size: 18px&quot;&gt;Kegiatan&lt;/font&gt;" style="whiteSpace=wrap;html=1;rounded=0;fillColor=#FFC107;" parent="1" vertex="1">
          <mxGeometry x="680" y="160" width="120" height="40" as="geometry" />
        </mxCell>
        <mxCell id="ZnOyd_s6FaFxM5RJmOr9-34" style="edgeStyle=orthogonalEdgeStyle;orthogonalLoop=1;jettySize=auto;html=1;exitX=0;exitY=0.5;exitDx=0;exitDy=0;entryX=0;entryY=0.5;entryDx=0;entryDy=0;fontSize=18;" parent="1" source="ZnOyd_s6FaFxM5RJmOr9-4" target="ZnOyd_s6FaFxM5RJmOr9-21" edge="1">
          <mxGeometry relative="1" as="geometry" />
        </mxCell>
        <mxCell id="ZnOyd_s6FaFxM5RJmOr9-35" style="edgeStyle=orthogonalEdgeStyle;orthogonalLoop=1;jettySize=auto;html=1;exitX=0;exitY=0.5;exitDx=0;exitDy=0;entryX=0;entryY=0.5;entryDx=0;entryDy=0;fontSize=18;" parent="1" source="ZnOyd_s6FaFxM5RJmOr9-4" target="ZnOyd_s6FaFxM5RJmOr9-22" edge="1">
          <mxGeometry relative="1" as="geometry" />
        </mxCell>
        <mxCell id="ZnOyd_s6FaFxM5RJmOr9-36" style="edgeStyle=orthogonalEdgeStyle;orthogonalLoop=1;jettySize=auto;html=1;exitX=0;exitY=0.5;exitDx=0;exitDy=0;entryX=0;entryY=0.5;entryDx=0;entryDy=0;fontSize=18;" parent="1" source="ZnOyd_s6FaFxM5RJmOr9-4" target="ZnOyd_s6FaFxM5RJmOr9-31" edge="1">
          <mxGeometry relative="1" as="geometry" />
        </mxCell>
        <mxCell id="ZnOyd_s6FaFxM5RJmOr9-37" style="edgeStyle=orthogonalEdgeStyle;orthogonalLoop=1;jettySize=auto;html=1;exitX=0;exitY=0.5;exitDx=0;exitDy=0;entryX=0;entryY=0.5;entryDx=0;entryDy=0;fontSize=18;" parent="1" source="ZnOyd_s6FaFxM5RJmOr9-4" target="ZnOyd_s6FaFxM5RJmOr9-32" edge="1">
          <mxGeometry relative="1" as="geometry" />
        </mxCell>
        <mxCell id="ZnOyd_s6FaFxM5RJmOr9-38" style="edgeStyle=orthogonalEdgeStyle;orthogonalLoop=1;jettySize=auto;html=1;exitX=0;exitY=0.5;exitDx=0;exitDy=0;entryX=0;entryY=0.5;entryDx=0;entryDy=0;fontSize=18;" parent="1" source="ZnOyd_s6FaFxM5RJmOr9-4" target="ZnOyd_s6FaFxM5RJmOr9-33" edge="1">
          <mxGeometry relative="1" as="geometry" />
        </mxCell>
        <mxCell id="ZnOyd_s6FaFxM5RJmOr9-4" value="&lt;font style=&quot;font-size: 18px&quot;&gt;Persekutuan&lt;/font&gt;" style="whiteSpace=wrap;html=1;rounded=0;fillColor=#FFC107;" parent="1" vertex="1">
          <mxGeometry x="950" y="160" width="120" height="40" as="geometry" />
        </mxCell>
        <mxCell id="ZnOyd_s6FaFxM5RJmOr9-44" style="edgeStyle=orthogonalEdgeStyle;orthogonalLoop=1;jettySize=auto;html=1;exitX=0;exitY=0.5;exitDx=0;exitDy=0;entryX=0;entryY=0.5;entryDx=0;entryDy=0;fontSize=18;" parent="1" source="ZnOyd_s6FaFxM5RJmOr9-5" target="ZnOyd_s6FaFxM5RJmOr9-39" edge="1">
          <mxGeometry relative="1" as="geometry" />
        </mxCell>
        <mxCell id="ZnOyd_s6FaFxM5RJmOr9-45" style="edgeStyle=orthogonalEdgeStyle;orthogonalLoop=1;jettySize=auto;html=1;exitX=0;exitY=0.5;exitDx=0;exitDy=0;entryX=0;entryY=0.5;entryDx=0;entryDy=0;fontSize=18;" parent="1" source="ZnOyd_s6FaFxM5RJmOr9-5" target="ZnOyd_s6FaFxM5RJmOr9-40" edge="1">
          <mxGeometry relative="1" as="geometry" />
        </mxCell>
        <mxCell id="ZnOyd_s6FaFxM5RJmOr9-46" style="edgeStyle=orthogonalEdgeStyle;orthogonalLoop=1;jettySize=auto;html=1;exitX=0;exitY=0.5;exitDx=0;exitDy=0;entryX=0;entryY=0.5;entryDx=0;entryDy=0;fontSize=18;" parent="1" source="ZnOyd_s6FaFxM5RJmOr9-5" target="ZnOyd_s6FaFxM5RJmOr9-41" edge="1">
          <mxGeometry relative="1" as="geometry" />
        </mxCell>
        <mxCell id="ZnOyd_s6FaFxM5RJmOr9-47" style="edgeStyle=orthogonalEdgeStyle;orthogonalLoop=1;jettySize=auto;html=1;exitX=0;exitY=0.5;exitDx=0;exitDy=0;entryX=0;entryY=0.5;entryDx=0;entryDy=0;fontSize=18;" parent="1" source="ZnOyd_s6FaFxM5RJmOr9-5" target="ZnOyd_s6FaFxM5RJmOr9-42" edge="1">
          <mxGeometry relative="1" as="geometry" />
        </mxCell>
        <mxCell id="ZnOyd_s6FaFxM5RJmOr9-5" value="&lt;font style=&quot;font-size: 18px&quot;&gt;Peribadahan&lt;/font&gt;" style="whiteSpace=wrap;html=1;rounded=0;fillColor=#FFC107;" parent="1" vertex="1">
          <mxGeometry x="1220" y="160" width="120" height="40" as="geometry" />
        </mxCell>
        <mxCell id="ZnOyd_s6FaFxM5RJmOr9-51" style="edgeStyle=orthogonalEdgeStyle;orthogonalLoop=1;jettySize=auto;html=1;exitX=0;exitY=0.5;exitDx=0;exitDy=0;entryX=0;entryY=0.5;entryDx=0;entryDy=0;fontSize=18;" parent="1" source="ZnOyd_s6FaFxM5RJmOr9-6" target="ZnOyd_s6FaFxM5RJmOr9-48" edge="1">
          <mxGeometry relative="1" as="geometry" />
        </mxCell>
        <mxCell id="ZnOyd_s6FaFxM5RJmOr9-52" style="edgeStyle=orthogonalEdgeStyle;orthogonalLoop=1;jettySize=auto;html=1;exitX=0;exitY=0.5;exitDx=0;exitDy=0;entryX=0;entryY=0.5;entryDx=0;entryDy=0;fontSize=18;" parent="1" source="ZnOyd_s6FaFxM5RJmOr9-6" target="ZnOyd_s6FaFxM5RJmOr9-49" edge="1">
          <mxGeometry relative="1" as="geometry" />
        </mxCell>
        <mxCell id="ZnOyd_s6FaFxM5RJmOr9-53" style="edgeStyle=orthogonalEdgeStyle;orthogonalLoop=1;jettySize=auto;html=1;exitX=0;exitY=0.5;exitDx=0;exitDy=0;entryX=0;entryY=0.5;entryDx=0;entryDy=0;fontSize=18;" parent="1" source="ZnOyd_s6FaFxM5RJmOr9-6" target="ZnOyd_s6FaFxM5RJmOr9-50" edge="1">
          <mxGeometry relative="1" as="geometry" />
        </mxCell>
        <mxCell id="ZnOyd_s6FaFxM5RJmOr9-6" value="&lt;font style=&quot;font-size: 18px&quot;&gt;Oikmas&lt;/font&gt;" style="whiteSpace=wrap;html=1;rounded=0;fillColor=#FFC107;" parent="1" vertex="1">
          <mxGeometry x="1490" y="160" width="120" height="40" as="geometry" />
        </mxCell>
        <mxCell id="ZnOyd_s6FaFxM5RJmOr9-61" style="edgeStyle=orthogonalEdgeStyle;orthogonalLoop=1;jettySize=auto;html=1;exitX=0;exitY=0.5;exitDx=0;exitDy=0;entryX=0;entryY=0.5;entryDx=0;entryDy=0;fontSize=18;" parent="1" source="ZnOyd_s6FaFxM5RJmOr9-7" target="ZnOyd_s6FaFxM5RJmOr9-54" edge="1">
          <mxGeometry relative="1" as="geometry" />
        </mxCell>
        <mxCell id="ZnOyd_s6FaFxM5RJmOr9-62" style="edgeStyle=orthogonalEdgeStyle;orthogonalLoop=1;jettySize=auto;html=1;exitX=0;exitY=0.5;exitDx=0;exitDy=0;entryX=0;entryY=0.5;entryDx=0;entryDy=0;fontSize=18;" parent="1" source="ZnOyd_s6FaFxM5RJmOr9-7" target="ZnOyd_s6FaFxM5RJmOr9-55" edge="1">
          <mxGeometry relative="1" as="geometry" />
        </mxCell>
        <mxCell id="ZnOyd_s6FaFxM5RJmOr9-63" style="edgeStyle=orthogonalEdgeStyle;orthogonalLoop=1;jettySize=auto;html=1;exitX=0;exitY=0.5;exitDx=0;exitDy=0;entryX=0;entryY=0.5;entryDx=0;entryDy=0;fontSize=18;" parent="1" source="ZnOyd_s6FaFxM5RJmOr9-7" target="ZnOyd_s6FaFxM5RJmOr9-56" edge="1">
          <mxGeometry relative="1" as="geometry" />
        </mxCell>
        <mxCell id="ZnOyd_s6FaFxM5RJmOr9-64" style="edgeStyle=orthogonalEdgeStyle;orthogonalLoop=1;jettySize=auto;html=1;exitX=0;exitY=0.5;exitDx=0;exitDy=0;entryX=0;entryY=0.5;entryDx=0;entryDy=0;fontSize=18;" parent="1" source="ZnOyd_s6FaFxM5RJmOr9-7" target="ZnOyd_s6FaFxM5RJmOr9-57" edge="1">
          <mxGeometry relative="1" as="geometry" />
        </mxCell>
        <mxCell id="ZnOyd_s6FaFxM5RJmOr9-65" style="edgeStyle=orthogonalEdgeStyle;orthogonalLoop=1;jettySize=auto;html=1;exitX=0;exitY=0.5;exitDx=0;exitDy=0;entryX=0;entryY=0.5;entryDx=0;entryDy=0;fontSize=18;" parent="1" source="ZnOyd_s6FaFxM5RJmOr9-7" target="ZnOyd_s6FaFxM5RJmOr9-58" edge="1">
          <mxGeometry relative="1" as="geometry" />
        </mxCell>
        <mxCell id="ZnOyd_s6FaFxM5RJmOr9-66" style="edgeStyle=orthogonalEdgeStyle;orthogonalLoop=1;jettySize=auto;html=1;exitX=0;exitY=0.5;exitDx=0;exitDy=0;entryX=0;entryY=0.5;entryDx=0;entryDy=0;fontSize=18;" parent="1" source="ZnOyd_s6FaFxM5RJmOr9-7" target="ZnOyd_s6FaFxM5RJmOr9-59" edge="1">
          <mxGeometry relative="1" as="geometry" />
        </mxCell>
        <mxCell id="ZnOyd_s6FaFxM5RJmOr9-7" value="&lt;font style=&quot;font-size: 18px&quot;&gt;Tentang Kami&lt;/font&gt;" style="whiteSpace=wrap;html=1;rounded=0;fillColor=#FFC107;" parent="1" vertex="1">
          <mxGeometry x="1760" y="160" width="120" height="40" as="geometry" />
        </mxCell>
        <mxCell id="ZnOyd_s6FaFxM5RJmOr9-11" value="&lt;font style=&quot;font-size: 18px&quot;&gt;Jadwal Kebaktian&lt;/font&gt;" style="whiteSpace=wrap;html=1;rounded=0;" parent="1" vertex="1">
          <mxGeometry x="140" y="260" width="170" height="40" as="geometry" />
        </mxCell>
        <mxCell id="ZnOyd_s6FaFxM5RJmOr9-12" value="&lt;font style=&quot;font-size: 18px&quot;&gt;Lagu, Tema &amp;amp; Bacaan&lt;/font&gt;" style="whiteSpace=wrap;html=1;rounded=0;" parent="1" vertex="1">
          <mxGeometry x="140" y="310" width="200" height="40" as="geometry" />
        </mxCell>
        <mxCell id="ZnOyd_s6FaFxM5RJmOr9-13" value="&lt;font style=&quot;font-size: 18px&quot;&gt;Jadwal Pelayanan Ibadah&lt;/font&gt;" style="whiteSpace=wrap;html=1;rounded=0;" parent="1" vertex="1">
          <mxGeometry x="140" y="360" width="230" height="40" as="geometry" />
        </mxCell>
        <mxCell id="ZnOyd_s6FaFxM5RJmOr9-17" value="&lt;font style=&quot;font-size: 18px&quot;&gt;Acara GKI Palsigunung&lt;/font&gt;" style="whiteSpace=wrap;html=1;rounded=0;" parent="1" vertex="1">
          <mxGeometry x="675" y="260" width="200" height="40" as="geometry" />
        </mxCell>
        <mxCell id="ZnOyd_s6FaFxM5RJmOr9-18" value="&lt;font style=&quot;font-size: 18px&quot;&gt;Berita GKI Palsigunung&lt;/font&gt;" style="whiteSpace=wrap;html=1;rounded=0;" parent="1" vertex="1">
          <mxGeometry x="675" y="310" width="200" height="40" as="geometry" />
        </mxCell>
        <mxCell id="ZnOyd_s6FaFxM5RJmOr9-21" value="&lt;font style=&quot;font-size: 18px&quot;&gt;Pelayanan P.A.K&lt;/font&gt;" style="whiteSpace=wrap;html=1;rounded=0;" parent="1" vertex="1">
          <mxGeometry x="950" y="260" width="200" height="40" as="geometry" />
        </mxCell>
        <mxCell id="ZnOyd_s6FaFxM5RJmOr9-22" value="&lt;font style=&quot;font-size: 18px&quot;&gt;Keangotaan&lt;/font&gt;" style="whiteSpace=wrap;html=1;rounded=0;" parent="1" vertex="1">
          <mxGeometry x="950" y="310" width="200" height="40" as="geometry" />
        </mxCell>
        <mxCell id="ZnOyd_s6FaFxM5RJmOr9-31" value="&lt;font style=&quot;font-size: 18px&quot;&gt;Jadwal Baptis&lt;/font&gt;" style="whiteSpace=wrap;html=1;rounded=0;" parent="1" vertex="1">
          <mxGeometry x="950" y="360" width="200" height="40" as="geometry" />
        </mxCell>
        <mxCell id="ZnOyd_s6FaFxM5RJmOr9-32" value="&lt;font style=&quot;font-size: 18px&quot;&gt;Komisi Perlawatan&lt;/font&gt;" style="whiteSpace=wrap;html=1;rounded=0;" parent="1" vertex="1">
          <mxGeometry x="950" y="410" width="200" height="40" as="geometry" />
        </mxCell>
        <mxCell id="ZnOyd_s6FaFxM5RJmOr9-33" value="&lt;font style=&quot;font-size: 18px&quot;&gt;Pernikahan Gerejawi&lt;/font&gt;" style="whiteSpace=wrap;html=1;rounded=0;" parent="1" vertex="1">
          <mxGeometry x="950" y="463.5" width="200" height="40" as="geometry" />
        </mxCell>
        <mxCell id="ZnOyd_s6FaFxM5RJmOr9-39" value="&lt;font style=&quot;font-size: 18px&quot;&gt;Persiapan Pelayanan&lt;/font&gt;" style="whiteSpace=wrap;html=1;rounded=0;" parent="1" vertex="1">
          <mxGeometry x="1220" y="260" width="200" height="40" as="geometry" />
        </mxCell>
        <mxCell id="ZnOyd_s6FaFxM5RJmOr9-40" value="&lt;font style=&quot;font-size: 18px&quot;&gt;Kebaktian Lingkungan&lt;/font&gt;" style="whiteSpace=wrap;html=1;rounded=0;" parent="1" vertex="1">
          <mxGeometry x="1220" y="310" width="200" height="40" as="geometry" />
        </mxCell>
        <mxCell id="ZnOyd_s6FaFxM5RJmOr9-41" value="&lt;font style=&quot;font-size: 18px&quot;&gt;Jadwal SMM&lt;/font&gt;" style="whiteSpace=wrap;html=1;rounded=0;" parent="1" vertex="1">
          <mxGeometry x="1220" y="360" width="200" height="40" as="geometry" />
        </mxCell>
        <mxCell id="ZnOyd_s6FaFxM5RJmOr9-42" value="&lt;font style=&quot;font-size: 18px&quot;&gt;Persekutuan Doa Pagi&lt;/font&gt;" style="whiteSpace=wrap;html=1;rounded=0;" parent="1" vertex="1">
          <mxGeometry x="1220" y="410" width="200" height="40" as="geometry" />
        </mxCell>
        <mxCell id="ZnOyd_s6FaFxM5RJmOr9-48" value="&lt;font style=&quot;font-size: 18px&quot;&gt;Kotak Peduli&lt;/font&gt;" style="whiteSpace=wrap;html=1;rounded=0;" parent="1" vertex="1">
          <mxGeometry x="1490" y="260" width="200" height="40" as="geometry" />
        </mxCell>
        <mxCell id="ZnOyd_s6FaFxM5RJmOr9-49" value="&lt;font style=&quot;font-size: 18px&quot;&gt;Komisi Beasiswa&lt;/font&gt;" style="whiteSpace=wrap;html=1;rounded=0;" parent="1" vertex="1">
          <mxGeometry x="1490" y="310" width="200" height="40" as="geometry" />
        </mxCell>
        <mxCell id="ZnOyd_s6FaFxM5RJmOr9-50" value="&lt;font style=&quot;font-size: 18px&quot;&gt;Pelayanan Kesehatan&lt;/font&gt;" style="whiteSpace=wrap;html=1;rounded=0;" parent="1" vertex="1">
          <mxGeometry x="1490" y="360" width="200" height="40" as="geometry" />
        </mxCell>
        <mxCell id="ZnOyd_s6FaFxM5RJmOr9-54" value="&lt;font style=&quot;font-size: 18px&quot;&gt;Sejarah GKI Palsigunung&lt;/font&gt;" style="whiteSpace=wrap;html=1;rounded=0;" parent="1" vertex="1">
          <mxGeometry x="1760" y="260" width="230" height="40" as="geometry" />
        </mxCell>
        <mxCell id="ZnOyd_s6FaFxM5RJmOr9-55" value="&lt;font style=&quot;font-size: 18px&quot;&gt;Visi &amp;amp; Misi&lt;/font&gt;" style="whiteSpace=wrap;html=1;rounded=0;" parent="1" vertex="1">
          <mxGeometry x="1760" y="310" width="200" height="40" as="geometry" />
        </mxCell>
        <mxCell id="ZnOyd_s6FaFxM5RJmOr9-56" value="&lt;font style=&quot;font-size: 18px&quot;&gt;Pendeta&lt;/font&gt;" style="whiteSpace=wrap;html=1;rounded=0;" parent="1" vertex="1">
          <mxGeometry x="1760" y="360" width="200" height="40" as="geometry" />
        </mxCell>
        <mxCell id="ZnOyd_s6FaFxM5RJmOr9-70" style="edgeStyle=orthogonalEdgeStyle;orthogonalLoop=1;jettySize=auto;html=1;exitX=1;exitY=0.5;exitDx=0;exitDy=0;entryX=0;entryY=0.5;entryDx=0;entryDy=0;fontSize=18;" parent="1" source="ZnOyd_s6FaFxM5RJmOr9-57" target="ZnOyd_s6FaFxM5RJmOr9-67" edge="1">
          <mxGeometry relative="1" as="geometry" />
        </mxCell>
        <mxCell id="ZnOyd_s6FaFxM5RJmOr9-71" style="edgeStyle=orthogonalEdgeStyle;orthogonalLoop=1;jettySize=auto;html=1;exitX=1;exitY=0.5;exitDx=0;exitDy=0;entryX=0;entryY=0.5;entryDx=0;entryDy=0;fontSize=18;" parent="1" source="ZnOyd_s6FaFxM5RJmOr9-57" target="ZnOyd_s6FaFxM5RJmOr9-68" edge="1">
          <mxGeometry relative="1" as="geometry" />
        </mxCell>
        <mxCell id="ZnOyd_s6FaFxM5RJmOr9-57" value="&lt;font style=&quot;font-size: 18px&quot;&gt;Majelis Jemaat&lt;/font&gt;" style="whiteSpace=wrap;html=1;rounded=0;" parent="1" vertex="1">
          <mxGeometry x="1760" y="410" width="200" height="40" as="geometry" />
        </mxCell>
        <mxCell id="ZnOyd_s6FaFxM5RJmOr9-58" value="&lt;font style=&quot;font-size: 18px&quot;&gt;Staff &amp;amp; Tata Usaha&lt;/font&gt;" style="whiteSpace=wrap;html=1;rounded=0;" parent="1" vertex="1">
          <mxGeometry x="1760" y="460" width="200" height="40" as="geometry" />
        </mxCell>
        <mxCell id="ZnOyd_s6FaFxM5RJmOr9-59" value="&lt;font style=&quot;font-size: 18px&quot;&gt;Informasi Kontak&lt;/font&gt;" style="whiteSpace=wrap;html=1;rounded=0;" parent="1" vertex="1">
          <mxGeometry x="1760" y="510" width="200" height="40" as="geometry" />
        </mxCell>
        <mxCell id="ZnOyd_s6FaFxM5RJmOr9-67" value="&lt;font style=&quot;font-size: 18px&quot;&gt;Periode 2020 - 2021&lt;/font&gt;" style="whiteSpace=wrap;html=1;rounded=0;" parent="1" vertex="1">
          <mxGeometry x="1990" y="383.5" width="200" height="40" as="geometry" />
        </mxCell>
        <mxCell id="ZnOyd_s6FaFxM5RJmOr9-68" value="&lt;font style=&quot;font-size: 18px&quot;&gt;Periode 2021 - 2022&lt;/font&gt;" style="whiteSpace=wrap;html=1;rounded=0;" parent="1" vertex="1">
          <mxGeometry x="1990" y="436.5" width="200" height="40" as="geometry" />
        </mxCell>
        <mxCell id="HeGypSdx80a0QgCDWU3E-2" value="&lt;font style=&quot;font-size: 48px&quot;&gt;Menu Tree Website GKI Palsigunung&lt;/font&gt;" style="text;html=1;align=center;verticalAlign=middle;resizable=0;points=[];autosize=1;strokeColor=none;fillColor=none;fontStyle=1" vertex="1" parent="1">
          <mxGeometry x="625" y="45" width="850" height="30" as="geometry" />
        </mxCell>
      </root>
    </mxGraphModel>
  </diagram>
  <diagram name="Mobile Application" id="D6u4H3SOBDfg5aEY_SB5">
    <mxGraphModel dx="3460" dy="1950" grid="1" gridSize="10" guides="1" tooltips="1" connect="1" arrows="1" fold="1" page="1" pageScale="1" pageWidth="1169" pageHeight="827" math="0" shadow="0">
      <root>
        <mxCell id="OJvUEoggR4DSw2i5ZtSV-0" />
        <mxCell id="OJvUEoggR4DSw2i5ZtSV-1" parent="OJvUEoggR4DSw2i5ZtSV-0" />
        <mxCell id="OJvUEoggR4DSw2i5ZtSV-2" style="edgeStyle=orthogonalEdgeStyle;orthogonalLoop=1;jettySize=auto;html=1;exitX=0;exitY=0.5;exitDx=0;exitDy=0;entryX=0;entryY=0.5;entryDx=0;entryDy=0;fontSize=18;" edge="1" parent="OJvUEoggR4DSw2i5ZtSV-1" source="OJvUEoggR4DSw2i5ZtSV-5" target="OJvUEoggR4DSw2i5ZtSV-32">
          <mxGeometry relative="1" as="geometry" />
        </mxCell>
        <mxCell id="OJvUEoggR4DSw2i5ZtSV-3" style="edgeStyle=orthogonalEdgeStyle;orthogonalLoop=1;jettySize=auto;html=1;exitX=0;exitY=0.5;exitDx=0;exitDy=0;entryX=0;entryY=0.5;entryDx=0;entryDy=0;fontSize=18;" edge="1" parent="OJvUEoggR4DSw2i5ZtSV-1" source="OJvUEoggR4DSw2i5ZtSV-5" target="OJvUEoggR4DSw2i5ZtSV-33">
          <mxGeometry relative="1" as="geometry" />
        </mxCell>
        <mxCell id="OJvUEoggR4DSw2i5ZtSV-4" style="edgeStyle=orthogonalEdgeStyle;orthogonalLoop=1;jettySize=auto;html=1;exitX=0;exitY=0.5;exitDx=0;exitDy=0;entryX=0;entryY=0.5;entryDx=0;entryDy=0;fontSize=18;" edge="1" parent="OJvUEoggR4DSw2i5ZtSV-1" source="OJvUEoggR4DSw2i5ZtSV-5" target="OJvUEoggR4DSw2i5ZtSV-34">
          <mxGeometry relative="1" as="geometry" />
        </mxCell>
        <mxCell id="OJvUEoggR4DSw2i5ZtSV-5" value="&lt;font style=&quot;font-size: 18px&quot;&gt;Kebaktian&lt;/font&gt;" style="whiteSpace=wrap;html=1;rounded=0;fillColor=#FFC107;" vertex="1" parent="OJvUEoggR4DSw2i5ZtSV-1">
          <mxGeometry x="50" y="160" width="120" height="40" as="geometry" />
        </mxCell>
        <mxCell id="LNnshBA_kn68CHYXh_f_-6" style="edgeStyle=orthogonalEdgeStyle;rounded=0;orthogonalLoop=1;jettySize=auto;html=1;exitX=0;exitY=0.5;exitDx=0;exitDy=0;entryX=0;entryY=0.5;entryDx=0;entryDy=0;" edge="1" parent="OJvUEoggR4DSw2i5ZtSV-1" source="OJvUEoggR4DSw2i5ZtSV-6" target="LNnshBA_kn68CHYXh_f_-0">
          <mxGeometry relative="1" as="geometry" />
        </mxCell>
        <mxCell id="LNnshBA_kn68CHYXh_f_-7" style="edgeStyle=orthogonalEdgeStyle;rounded=0;orthogonalLoop=1;jettySize=auto;html=1;exitX=0;exitY=0.5;exitDx=0;exitDy=0;entryX=0;entryY=0.5;entryDx=0;entryDy=0;" edge="1" parent="OJvUEoggR4DSw2i5ZtSV-1" source="OJvUEoggR4DSw2i5ZtSV-6" target="LNnshBA_kn68CHYXh_f_-1">
          <mxGeometry relative="1" as="geometry" />
        </mxCell>
        <mxCell id="LNnshBA_kn68CHYXh_f_-8" style="edgeStyle=orthogonalEdgeStyle;rounded=0;orthogonalLoop=1;jettySize=auto;html=1;exitX=0;exitY=0.5;exitDx=0;exitDy=0;entryX=0;entryY=0.5;entryDx=0;entryDy=0;" edge="1" parent="OJvUEoggR4DSw2i5ZtSV-1" source="OJvUEoggR4DSw2i5ZtSV-6" target="LNnshBA_kn68CHYXh_f_-2">
          <mxGeometry relative="1" as="geometry" />
        </mxCell>
        <mxCell id="LNnshBA_kn68CHYXh_f_-9" style="edgeStyle=orthogonalEdgeStyle;rounded=0;orthogonalLoop=1;jettySize=auto;html=1;exitX=0;exitY=0.5;exitDx=0;exitDy=0;entryX=0;entryY=0.5;entryDx=0;entryDy=0;" edge="1" parent="OJvUEoggR4DSw2i5ZtSV-1" source="OJvUEoggR4DSw2i5ZtSV-6" target="LNnshBA_kn68CHYXh_f_-3">
          <mxGeometry relative="1" as="geometry" />
        </mxCell>
        <mxCell id="LNnshBA_kn68CHYXh_f_-10" style="edgeStyle=orthogonalEdgeStyle;rounded=0;orthogonalLoop=1;jettySize=auto;html=1;exitX=0;exitY=0.5;exitDx=0;exitDy=0;entryX=0;entryY=0.5;entryDx=0;entryDy=0;" edge="1" parent="OJvUEoggR4DSw2i5ZtSV-1" source="OJvUEoggR4DSw2i5ZtSV-6" target="LNnshBA_kn68CHYXh_f_-4">
          <mxGeometry relative="1" as="geometry" />
        </mxCell>
        <mxCell id="LNnshBA_kn68CHYXh_f_-11" style="edgeStyle=orthogonalEdgeStyle;rounded=0;orthogonalLoop=1;jettySize=auto;html=1;exitX=0;exitY=0.5;exitDx=0;exitDy=0;entryX=0;entryY=0.5;entryDx=0;entryDy=0;" edge="1" parent="OJvUEoggR4DSw2i5ZtSV-1" source="OJvUEoggR4DSw2i5ZtSV-6" target="LNnshBA_kn68CHYXh_f_-5">
          <mxGeometry relative="1" as="geometry" />
        </mxCell>
        <mxCell id="OJvUEoggR4DSw2i5ZtSV-6" value="&lt;font style=&quot;font-size: 18px&quot;&gt;Agenda&lt;/font&gt;" style="whiteSpace=wrap;html=1;rounded=0;fillColor=#FFC107;" vertex="1" parent="OJvUEoggR4DSw2i5ZtSV-1">
          <mxGeometry x="320" y="160" width="120" height="40" as="geometry" />
        </mxCell>
        <mxCell id="OJvUEoggR4DSw2i5ZtSV-7" style="edgeStyle=orthogonalEdgeStyle;orthogonalLoop=1;jettySize=auto;html=1;exitX=0;exitY=0.5;exitDx=0;exitDy=0;entryX=0;entryY=0.5;entryDx=0;entryDy=0;fontSize=18;" edge="1" parent="OJvUEoggR4DSw2i5ZtSV-1" source="OJvUEoggR4DSw2i5ZtSV-9" target="OJvUEoggR4DSw2i5ZtSV-35">
          <mxGeometry relative="1" as="geometry" />
        </mxCell>
        <mxCell id="OJvUEoggR4DSw2i5ZtSV-8" style="edgeStyle=orthogonalEdgeStyle;orthogonalLoop=1;jettySize=auto;html=1;exitX=0;exitY=0.5;exitDx=0;exitDy=0;entryX=0;entryY=0.5;entryDx=0;entryDy=0;fontSize=18;" edge="1" parent="OJvUEoggR4DSw2i5ZtSV-1" source="OJvUEoggR4DSw2i5ZtSV-9" target="OJvUEoggR4DSw2i5ZtSV-36">
          <mxGeometry relative="1" as="geometry" />
        </mxCell>
        <mxCell id="LNnshBA_kn68CHYXh_f_-16" style="edgeStyle=orthogonalEdgeStyle;rounded=0;orthogonalLoop=1;jettySize=auto;html=1;exitX=0;exitY=0.5;exitDx=0;exitDy=0;entryX=0;entryY=0.5;entryDx=0;entryDy=0;" edge="1" parent="OJvUEoggR4DSw2i5ZtSV-1" source="OJvUEoggR4DSw2i5ZtSV-9" target="LNnshBA_kn68CHYXh_f_-13">
          <mxGeometry relative="1" as="geometry" />
        </mxCell>
        <mxCell id="LNnshBA_kn68CHYXh_f_-17" style="edgeStyle=orthogonalEdgeStyle;rounded=0;orthogonalLoop=1;jettySize=auto;html=1;exitX=0;exitY=0.5;exitDx=0;exitDy=0;entryX=0;entryY=0.5;entryDx=0;entryDy=0;" edge="1" parent="OJvUEoggR4DSw2i5ZtSV-1" source="OJvUEoggR4DSw2i5ZtSV-9" target="LNnshBA_kn68CHYXh_f_-14">
          <mxGeometry relative="1" as="geometry" />
        </mxCell>
        <mxCell id="LNnshBA_kn68CHYXh_f_-18" style="edgeStyle=orthogonalEdgeStyle;rounded=0;orthogonalLoop=1;jettySize=auto;html=1;exitX=0;exitY=0.5;exitDx=0;exitDy=0;entryX=0;entryY=0.5;entryDx=0;entryDy=0;" edge="1" parent="OJvUEoggR4DSw2i5ZtSV-1" source="OJvUEoggR4DSw2i5ZtSV-9" target="LNnshBA_kn68CHYXh_f_-15">
          <mxGeometry relative="1" as="geometry" />
        </mxCell>
        <mxCell id="OJvUEoggR4DSw2i5ZtSV-9" value="&lt;font style=&quot;font-size: 18px&quot;&gt;Bidang Kategorial&lt;/font&gt;" style="whiteSpace=wrap;html=1;rounded=0;fillColor=#FFC107;" vertex="1" parent="OJvUEoggR4DSw2i5ZtSV-1">
          <mxGeometry x="590" y="160" width="170" height="40" as="geometry" />
        </mxCell>
        <mxCell id="OJvUEoggR4DSw2i5ZtSV-10" style="edgeStyle=orthogonalEdgeStyle;orthogonalLoop=1;jettySize=auto;html=1;exitX=0;exitY=0.5;exitDx=0;exitDy=0;entryX=0;entryY=0.5;entryDx=0;entryDy=0;fontSize=18;" edge="1" parent="OJvUEoggR4DSw2i5ZtSV-1" source="OJvUEoggR4DSw2i5ZtSV-15" target="OJvUEoggR4DSw2i5ZtSV-37">
          <mxGeometry relative="1" as="geometry" />
        </mxCell>
        <mxCell id="OJvUEoggR4DSw2i5ZtSV-11" style="edgeStyle=orthogonalEdgeStyle;orthogonalLoop=1;jettySize=auto;html=1;exitX=0;exitY=0.5;exitDx=0;exitDy=0;entryX=0;entryY=0.5;entryDx=0;entryDy=0;fontSize=18;" edge="1" parent="OJvUEoggR4DSw2i5ZtSV-1" source="OJvUEoggR4DSw2i5ZtSV-15" target="OJvUEoggR4DSw2i5ZtSV-38">
          <mxGeometry relative="1" as="geometry" />
        </mxCell>
        <mxCell id="OJvUEoggR4DSw2i5ZtSV-12" style="edgeStyle=orthogonalEdgeStyle;orthogonalLoop=1;jettySize=auto;html=1;exitX=0;exitY=0.5;exitDx=0;exitDy=0;entryX=0;entryY=0.5;entryDx=0;entryDy=0;fontSize=18;" edge="1" parent="OJvUEoggR4DSw2i5ZtSV-1" source="OJvUEoggR4DSw2i5ZtSV-15" target="OJvUEoggR4DSw2i5ZtSV-39">
          <mxGeometry relative="1" as="geometry" />
        </mxCell>
        <mxCell id="OJvUEoggR4DSw2i5ZtSV-13" style="edgeStyle=orthogonalEdgeStyle;orthogonalLoop=1;jettySize=auto;html=1;exitX=0;exitY=0.5;exitDx=0;exitDy=0;entryX=0;entryY=0.5;entryDx=0;entryDy=0;fontSize=18;" edge="1" parent="OJvUEoggR4DSw2i5ZtSV-1" source="OJvUEoggR4DSw2i5ZtSV-15" target="OJvUEoggR4DSw2i5ZtSV-40">
          <mxGeometry relative="1" as="geometry" />
        </mxCell>
        <mxCell id="OJvUEoggR4DSw2i5ZtSV-14" style="edgeStyle=orthogonalEdgeStyle;orthogonalLoop=1;jettySize=auto;html=1;exitX=0;exitY=0.5;exitDx=0;exitDy=0;entryX=0;entryY=0.5;entryDx=0;entryDy=0;fontSize=18;" edge="1" parent="OJvUEoggR4DSw2i5ZtSV-1" source="OJvUEoggR4DSw2i5ZtSV-15" target="OJvUEoggR4DSw2i5ZtSV-41">
          <mxGeometry relative="1" as="geometry" />
        </mxCell>
        <mxCell id="OJvUEoggR4DSw2i5ZtSV-15" value="&lt;font style=&quot;font-size: 18px&quot;&gt;Bidang Persekutuan&lt;/font&gt;" style="whiteSpace=wrap;html=1;rounded=0;fillColor=#FFC107;" vertex="1" parent="OJvUEoggR4DSw2i5ZtSV-1">
          <mxGeometry x="860" y="160" width="200" height="40" as="geometry" />
        </mxCell>
        <mxCell id="OJvUEoggR4DSw2i5ZtSV-16" style="edgeStyle=orthogonalEdgeStyle;orthogonalLoop=1;jettySize=auto;html=1;exitX=0;exitY=0.5;exitDx=0;exitDy=0;entryX=0;entryY=0.5;entryDx=0;entryDy=0;fontSize=18;" edge="1" parent="OJvUEoggR4DSw2i5ZtSV-1" source="OJvUEoggR4DSw2i5ZtSV-20" target="OJvUEoggR4DSw2i5ZtSV-42">
          <mxGeometry relative="1" as="geometry" />
        </mxCell>
        <mxCell id="OJvUEoggR4DSw2i5ZtSV-17" style="edgeStyle=orthogonalEdgeStyle;orthogonalLoop=1;jettySize=auto;html=1;exitX=0;exitY=0.5;exitDx=0;exitDy=0;entryX=0;entryY=0.5;entryDx=0;entryDy=0;fontSize=18;" edge="1" parent="OJvUEoggR4DSw2i5ZtSV-1" source="OJvUEoggR4DSw2i5ZtSV-20" target="OJvUEoggR4DSw2i5ZtSV-43">
          <mxGeometry relative="1" as="geometry" />
        </mxCell>
        <mxCell id="OJvUEoggR4DSw2i5ZtSV-18" style="edgeStyle=orthogonalEdgeStyle;orthogonalLoop=1;jettySize=auto;html=1;exitX=0;exitY=0.5;exitDx=0;exitDy=0;entryX=0;entryY=0.5;entryDx=0;entryDy=0;fontSize=18;" edge="1" parent="OJvUEoggR4DSw2i5ZtSV-1" source="OJvUEoggR4DSw2i5ZtSV-20" target="OJvUEoggR4DSw2i5ZtSV-44">
          <mxGeometry relative="1" as="geometry" />
        </mxCell>
        <mxCell id="OJvUEoggR4DSw2i5ZtSV-19" style="edgeStyle=orthogonalEdgeStyle;orthogonalLoop=1;jettySize=auto;html=1;exitX=0;exitY=0.5;exitDx=0;exitDy=0;entryX=0;entryY=0.5;entryDx=0;entryDy=0;fontSize=18;" edge="1" parent="OJvUEoggR4DSw2i5ZtSV-1" source="OJvUEoggR4DSw2i5ZtSV-20" target="OJvUEoggR4DSw2i5ZtSV-45">
          <mxGeometry relative="1" as="geometry" />
        </mxCell>
        <mxCell id="OJvUEoggR4DSw2i5ZtSV-20" value="&lt;font style=&quot;font-size: 18px&quot;&gt;Bidang Peribadahan&lt;/font&gt;" style="whiteSpace=wrap;html=1;rounded=0;fillColor=#FFC107;" vertex="1" parent="OJvUEoggR4DSw2i5ZtSV-1">
          <mxGeometry x="1130" y="160" width="200" height="40" as="geometry" />
        </mxCell>
        <mxCell id="OJvUEoggR4DSw2i5ZtSV-21" style="edgeStyle=orthogonalEdgeStyle;orthogonalLoop=1;jettySize=auto;html=1;exitX=0;exitY=0.5;exitDx=0;exitDy=0;entryX=0;entryY=0.5;entryDx=0;entryDy=0;fontSize=18;" edge="1" parent="OJvUEoggR4DSw2i5ZtSV-1" source="OJvUEoggR4DSw2i5ZtSV-24" target="OJvUEoggR4DSw2i5ZtSV-46">
          <mxGeometry relative="1" as="geometry" />
        </mxCell>
        <mxCell id="OJvUEoggR4DSw2i5ZtSV-22" style="edgeStyle=orthogonalEdgeStyle;orthogonalLoop=1;jettySize=auto;html=1;exitX=0;exitY=0.5;exitDx=0;exitDy=0;entryX=0;entryY=0.5;entryDx=0;entryDy=0;fontSize=18;" edge="1" parent="OJvUEoggR4DSw2i5ZtSV-1" source="OJvUEoggR4DSw2i5ZtSV-24" target="OJvUEoggR4DSw2i5ZtSV-47">
          <mxGeometry relative="1" as="geometry" />
        </mxCell>
        <mxCell id="OJvUEoggR4DSw2i5ZtSV-23" style="edgeStyle=orthogonalEdgeStyle;orthogonalLoop=1;jettySize=auto;html=1;exitX=0;exitY=0.5;exitDx=0;exitDy=0;entryX=0;entryY=0.5;entryDx=0;entryDy=0;fontSize=18;" edge="1" parent="OJvUEoggR4DSw2i5ZtSV-1" source="OJvUEoggR4DSw2i5ZtSV-24" target="OJvUEoggR4DSw2i5ZtSV-48">
          <mxGeometry relative="1" as="geometry" />
        </mxCell>
        <mxCell id="OJvUEoggR4DSw2i5ZtSV-24" value="&lt;font style=&quot;font-size: 18px&quot;&gt;Oikmas&lt;/font&gt;" style="whiteSpace=wrap;html=1;rounded=0;fillColor=#FFC107;" vertex="1" parent="OJvUEoggR4DSw2i5ZtSV-1">
          <mxGeometry x="1400" y="160" width="120" height="40" as="geometry" />
        </mxCell>
        <mxCell id="OJvUEoggR4DSw2i5ZtSV-32" value="&lt;font style=&quot;font-size: 18px&quot;&gt;Jadwal Kebaktian&lt;/font&gt;" style="whiteSpace=wrap;html=1;rounded=0;" vertex="1" parent="OJvUEoggR4DSw2i5ZtSV-1">
          <mxGeometry x="50" y="260" width="170" height="40" as="geometry" />
        </mxCell>
        <mxCell id="OJvUEoggR4DSw2i5ZtSV-33" value="&lt;font style=&quot;font-size: 18px&quot;&gt;Lagu, Tema &amp;amp; Bacaan&lt;/font&gt;" style="whiteSpace=wrap;html=1;rounded=0;" vertex="1" parent="OJvUEoggR4DSw2i5ZtSV-1">
          <mxGeometry x="50" y="310" width="200" height="40" as="geometry" />
        </mxCell>
        <mxCell id="OJvUEoggR4DSw2i5ZtSV-34" value="&lt;font style=&quot;font-size: 18px&quot;&gt;Jadwal Pelayanan Ibadah&lt;/font&gt;" style="whiteSpace=wrap;html=1;rounded=0;" vertex="1" parent="OJvUEoggR4DSw2i5ZtSV-1">
          <mxGeometry x="50" y="360" width="230" height="40" as="geometry" />
        </mxCell>
        <mxCell id="OJvUEoggR4DSw2i5ZtSV-35" value="&lt;font style=&quot;font-size: 18px&quot;&gt;Kebaktian Umum&lt;/font&gt;" style="whiteSpace=wrap;html=1;rounded=0;" vertex="1" parent="OJvUEoggR4DSw2i5ZtSV-1">
          <mxGeometry x="585" y="260" width="200" height="40" as="geometry" />
        </mxCell>
        <mxCell id="OJvUEoggR4DSw2i5ZtSV-36" value="&lt;font style=&quot;font-size: 18px&quot;&gt;Kebaktian Anak&lt;/font&gt;" style="whiteSpace=wrap;html=1;rounded=0;" vertex="1" parent="OJvUEoggR4DSw2i5ZtSV-1">
          <mxGeometry x="585" y="310" width="200" height="40" as="geometry" />
        </mxCell>
        <mxCell id="OJvUEoggR4DSw2i5ZtSV-37" value="&lt;font style=&quot;font-size: 18px&quot;&gt;Pelayanan P.A.K&lt;/font&gt;" style="whiteSpace=wrap;html=1;rounded=0;" vertex="1" parent="OJvUEoggR4DSw2i5ZtSV-1">
          <mxGeometry x="860" y="260" width="200" height="40" as="geometry" />
        </mxCell>
        <mxCell id="OJvUEoggR4DSw2i5ZtSV-38" value="&lt;font style=&quot;font-size: 18px&quot;&gt;Keangotaan&lt;/font&gt;" style="whiteSpace=wrap;html=1;rounded=0;" vertex="1" parent="OJvUEoggR4DSw2i5ZtSV-1">
          <mxGeometry x="860" y="310" width="200" height="40" as="geometry" />
        </mxCell>
        <mxCell id="OJvUEoggR4DSw2i5ZtSV-39" value="&lt;font style=&quot;font-size: 18px&quot;&gt;Jadwal Baptis&lt;/font&gt;" style="whiteSpace=wrap;html=1;rounded=0;" vertex="1" parent="OJvUEoggR4DSw2i5ZtSV-1">
          <mxGeometry x="860" y="360" width="200" height="40" as="geometry" />
        </mxCell>
        <mxCell id="OJvUEoggR4DSw2i5ZtSV-40" value="&lt;font style=&quot;font-size: 18px&quot;&gt;Komisi Perlawatan&lt;/font&gt;" style="whiteSpace=wrap;html=1;rounded=0;" vertex="1" parent="OJvUEoggR4DSw2i5ZtSV-1">
          <mxGeometry x="860" y="410" width="200" height="40" as="geometry" />
        </mxCell>
        <mxCell id="OJvUEoggR4DSw2i5ZtSV-41" value="&lt;font style=&quot;font-size: 18px&quot;&gt;Pernikahan Gerejawi&lt;/font&gt;" style="whiteSpace=wrap;html=1;rounded=0;" vertex="1" parent="OJvUEoggR4DSw2i5ZtSV-1">
          <mxGeometry x="860" y="463.5" width="200" height="40" as="geometry" />
        </mxCell>
        <mxCell id="OJvUEoggR4DSw2i5ZtSV-42" value="&lt;font style=&quot;font-size: 18px&quot;&gt;Persiapan Pelayanan&lt;/font&gt;" style="whiteSpace=wrap;html=1;rounded=0;" vertex="1" parent="OJvUEoggR4DSw2i5ZtSV-1">
          <mxGeometry x="1130" y="260" width="200" height="40" as="geometry" />
        </mxCell>
        <mxCell id="OJvUEoggR4DSw2i5ZtSV-43" value="&lt;font style=&quot;font-size: 18px&quot;&gt;Kebaktian Lingkungan&lt;/font&gt;" style="whiteSpace=wrap;html=1;rounded=0;" vertex="1" parent="OJvUEoggR4DSw2i5ZtSV-1">
          <mxGeometry x="1130" y="310" width="200" height="40" as="geometry" />
        </mxCell>
        <mxCell id="OJvUEoggR4DSw2i5ZtSV-44" value="&lt;font style=&quot;font-size: 18px&quot;&gt;Jadwal SMM&lt;/font&gt;" style="whiteSpace=wrap;html=1;rounded=0;" vertex="1" parent="OJvUEoggR4DSw2i5ZtSV-1">
          <mxGeometry x="1130" y="360" width="200" height="40" as="geometry" />
        </mxCell>
        <mxCell id="OJvUEoggR4DSw2i5ZtSV-45" value="&lt;font style=&quot;font-size: 18px&quot;&gt;Persekutuan Doa Pagi&lt;/font&gt;" style="whiteSpace=wrap;html=1;rounded=0;" vertex="1" parent="OJvUEoggR4DSw2i5ZtSV-1">
          <mxGeometry x="1130" y="410" width="200" height="40" as="geometry" />
        </mxCell>
        <mxCell id="OJvUEoggR4DSw2i5ZtSV-46" value="&lt;font style=&quot;font-size: 18px&quot;&gt;Kotak Peduli&lt;/font&gt;" style="whiteSpace=wrap;html=1;rounded=0;" vertex="1" parent="OJvUEoggR4DSw2i5ZtSV-1">
          <mxGeometry x="1400" y="260" width="200" height="40" as="geometry" />
        </mxCell>
        <mxCell id="OJvUEoggR4DSw2i5ZtSV-47" value="&lt;font style=&quot;font-size: 18px&quot;&gt;Komisi Beasiswa&lt;/font&gt;" style="whiteSpace=wrap;html=1;rounded=0;" vertex="1" parent="OJvUEoggR4DSw2i5ZtSV-1">
          <mxGeometry x="1400" y="310" width="200" height="40" as="geometry" />
        </mxCell>
        <mxCell id="OJvUEoggR4DSw2i5ZtSV-48" value="&lt;font style=&quot;font-size: 18px&quot;&gt;Pelayanan Kesehatan&lt;/font&gt;" style="whiteSpace=wrap;html=1;rounded=0;" vertex="1" parent="OJvUEoggR4DSw2i5ZtSV-1">
          <mxGeometry x="1400" y="360" width="200" height="40" as="geometry" />
        </mxCell>
        <mxCell id="LNnshBA_kn68CHYXh_f_-0" value="&lt;font style=&quot;font-size: 18px&quot;&gt;Ulang Tahun Jemaat&lt;/font&gt;" style="whiteSpace=wrap;html=1;rounded=0;" vertex="1" parent="OJvUEoggR4DSw2i5ZtSV-1">
          <mxGeometry x="320" y="260" width="180" height="40" as="geometry" />
        </mxCell>
        <mxCell id="LNnshBA_kn68CHYXh_f_-1" value="&lt;font style=&quot;font-size: 18px&quot;&gt;Pelayanan Pastoral&lt;/font&gt;" style="whiteSpace=wrap;html=1;rounded=0;" vertex="1" parent="OJvUEoggR4DSw2i5ZtSV-1">
          <mxGeometry x="320" y="310" width="180" height="40" as="geometry" />
        </mxCell>
        <mxCell id="LNnshBA_kn68CHYXh_f_-2" value="&lt;font style=&quot;font-size: 18px&quot;&gt;Jadwal Rapat&lt;/font&gt;" style="whiteSpace=wrap;html=1;rounded=0;" vertex="1" parent="OJvUEoggR4DSw2i5ZtSV-1">
          <mxGeometry x="320" y="360" width="180" height="40" as="geometry" />
        </mxCell>
        <mxCell id="LNnshBA_kn68CHYXh_f_-3" value="&lt;font style=&quot;font-size: 18px&quot;&gt;Persidangan Majelis Jemaat&lt;/font&gt;" style="whiteSpace=wrap;html=1;rounded=0;" vertex="1" parent="OJvUEoggR4DSw2i5ZtSV-1">
          <mxGeometry x="320" y="510" width="250" height="40" as="geometry" />
        </mxCell>
        <mxCell id="LNnshBA_kn68CHYXh_f_-4" value="&lt;font style=&quot;font-size: 18px&quot;&gt;Kesempatan Pelayanan&lt;/font&gt;" style="whiteSpace=wrap;html=1;rounded=0;" vertex="1" parent="OJvUEoggR4DSw2i5ZtSV-1">
          <mxGeometry x="320" y="410" width="200" height="40" as="geometry" />
        </mxCell>
        <mxCell id="LNnshBA_kn68CHYXh_f_-5" value="&lt;font style=&quot;font-size: 18px&quot;&gt;Tim Gugus Tugas&lt;/font&gt;" style="whiteSpace=wrap;html=1;rounded=0;" vertex="1" parent="OJvUEoggR4DSw2i5ZtSV-1">
          <mxGeometry x="320" y="460" width="200" height="40" as="geometry" />
        </mxCell>
        <mxCell id="LNnshBA_kn68CHYXh_f_-13" value="&lt;font style=&quot;font-size: 18px&quot;&gt;Kebaktian Remaja&lt;/font&gt;" style="whiteSpace=wrap;html=1;rounded=0;" vertex="1" parent="OJvUEoggR4DSw2i5ZtSV-1">
          <mxGeometry x="585" y="360" width="200" height="40" as="geometry" />
        </mxCell>
        <mxCell id="LNnshBA_kn68CHYXh_f_-14" value="&lt;font style=&quot;font-size: 18px&quot;&gt;Kebaktian Pemuda&lt;/font&gt;" style="whiteSpace=wrap;html=1;rounded=0;" vertex="1" parent="OJvUEoggR4DSw2i5ZtSV-1">
          <mxGeometry x="585" y="410" width="200" height="40" as="geometry" />
        </mxCell>
        <mxCell id="LNnshBA_kn68CHYXh_f_-15" value="&lt;font style=&quot;font-size: 18px&quot;&gt;Kebaktian KUL&lt;/font&gt;" style="whiteSpace=wrap;html=1;rounded=0;" vertex="1" parent="OJvUEoggR4DSw2i5ZtSV-1">
          <mxGeometry x="585" y="460" width="200" height="40" as="geometry" />
        </mxCell>
        <mxCell id="LNnshBA_kn68CHYXh_f_-19" style="edgeStyle=orthogonalEdgeStyle;orthogonalLoop=1;jettySize=auto;html=1;exitX=0;exitY=0.5;exitDx=0;exitDy=0;entryX=0;entryY=0.5;entryDx=0;entryDy=0;fontSize=18;" edge="1" parent="OJvUEoggR4DSw2i5ZtSV-1" source="LNnshBA_kn68CHYXh_f_-22" target="LNnshBA_kn68CHYXh_f_-23">
          <mxGeometry relative="1" as="geometry" />
        </mxCell>
        <mxCell id="LNnshBA_kn68CHYXh_f_-22" value="&lt;font style=&quot;font-size: 18px&quot;&gt;Keuangan&lt;/font&gt;" style="whiteSpace=wrap;html=1;rounded=0;fillColor=#FFC107;" vertex="1" parent="OJvUEoggR4DSw2i5ZtSV-1">
          <mxGeometry x="1664" y="160" width="120" height="40" as="geometry" />
        </mxCell>
        <mxCell id="LNnshBA_kn68CHYXh_f_-23" value="&lt;font style=&quot;font-size: 18px&quot;&gt;Rekapitulasi Persembahan&lt;/font&gt;" style="whiteSpace=wrap;html=1;rounded=0;" vertex="1" parent="OJvUEoggR4DSw2i5ZtSV-1">
          <mxGeometry x="1664" y="260" width="200" height="40" as="geometry" />
        </mxCell>
        <mxCell id="LNnshBA_kn68CHYXh_f_-26" value="&lt;font style=&quot;font-size: 18px&quot;&gt;Kegiatan Mingguan&lt;/font&gt;" style="whiteSpace=wrap;html=1;rounded=0;fillColor=#FFC107;" vertex="1" parent="OJvUEoggR4DSw2i5ZtSV-1">
          <mxGeometry x="1820" y="160" width="120" height="40" as="geometry" />
        </mxCell>
        <mxCell id="LNnshBA_kn68CHYXh_f_-27" value="&lt;font style=&quot;font-size: 18px&quot;&gt;Klinik Hukum&lt;/font&gt;" style="whiteSpace=wrap;html=1;rounded=0;fillColor=#FFC107;" vertex="1" parent="OJvUEoggR4DSw2i5ZtSV-1">
          <mxGeometry x="1970" y="160" width="120" height="40" as="geometry" />
        </mxCell>
        <mxCell id="LNnshBA_kn68CHYXh_f_-28" value="&lt;font style=&quot;font-size: 18px&quot;&gt;Lowongan Kerja&lt;/font&gt;" style="whiteSpace=wrap;html=1;rounded=0;fillColor=#FFC107;" vertex="1" parent="OJvUEoggR4DSw2i5ZtSV-1">
          <mxGeometry x="2120" y="160" width="120" height="40" as="geometry" />
        </mxCell>
        <mxCell id="LNnshBA_kn68CHYXh_f_-29" value="&lt;font style=&quot;font-size: 18px&quot;&gt;Tentang Gereja&lt;/font&gt;" style="whiteSpace=wrap;html=1;rounded=0;fillColor=#FFC107;" vertex="1" parent="OJvUEoggR4DSw2i5ZtSV-1">
          <mxGeometry x="2270" y="160" width="120" height="40" as="geometry" />
        </mxCell>
        <mxCell id="LNnshBA_kn68CHYXh_f_-30" value="&lt;font style=&quot;font-size: 18px&quot;&gt;Kontak Gereja&lt;/font&gt;" style="whiteSpace=wrap;html=1;rounded=0;fillColor=#FFC107;" vertex="1" parent="OJvUEoggR4DSw2i5ZtSV-1">
          <mxGeometry x="2420" y="160" width="120" height="40" as="geometry" />
        </mxCell>
        <mxCell id="jQgf6d0tk2_VSIPOb8c9-0" value="&lt;font style=&quot;font-size: 48px&quot;&gt;Menu Tree Mobile Apps GKI Palsigunung&lt;/font&gt;" style="text;html=1;align=center;verticalAlign=middle;resizable=0;points=[];autosize=1;strokeColor=none;fillColor=none;fontStyle=1" vertex="1" parent="OJvUEoggR4DSw2i5ZtSV-1">
          <mxGeometry x="865" y="45" width="950" height="30" as="geometry" />
        </mxCell>
      </root>
    </mxGraphModel>
  </diagram>
</mxfile>
